<?xml version="1.0" standalone="no"?>
<!DOCTYPE svg PUBLIC "-//W3C//DTD SVG 20010904//EN"
 "http://www.w3.org/TR/2001/REC-SVG-20010904/DTD/svg10.dtd">
<svg version="1.0" xmlns="http://www.w3.org/2000/svg"
 width="200.000000pt" height="200.000000pt" viewBox="0 0 200.000000 200.000000"
 preserveAspectRatio="xMidYMid meet">
<metadata>
Created by potrace 1.14, written by Peter Selinger 2001-2017
</metadata>
<g transform="translate(0.000000,200.000000) scale(0.100000,-0.100000)"
fill="#000000" stroke="none">
<path d="M919 1915 c-2 -2 -31 -6 -63 -10 -110 -11 -262 -74 -382 -156 -447
-309 -521 -961 -154 -1362 284 -309 725 -390 1100 -202 449 225 628 810 384
1254 -82 148 -222 288 -369 368 -66 35 -195 82 -260 94 -58 11 -249 21 -256
14z m120 -181 c50 -29 129 -170 147 -262 6 -30 5 -30 -52 -42 -66 -14 -263 -9
-305 8 l-27 11 24 66 c52 144 118 233 172 235 8 0 26 -7 41 -16z m406 -130
l27 -23 -57 -37 c-61 -41 -67 -39 -82 16 -3 14 -16 48 -29 77 -12 28 -20 54
-18 56 7 7 125 -60 159 -89z m-744 44 c-10 -24 -26 -64 -35 -90 -10 -27 -21
-48 -24 -48 -4 0 -31 16 -60 36 l-53 35 28 24 c32 28 132 84 150 85 8 0 6 -13
-6 -42z m-233 -227 c28 -21 72 -49 97 -62 43 -22 46 -26 40 -54 -3 -16 -9 -70
-12 -120 -3 -49 -7 -92 -10 -95 -6 -6 -304 -9 -319 -3 -7 2 -10 12 -8 21 20
94 40 160 61 204 29 59 85 148 94 148 3 0 29 -17 57 -39z m1158 -8 c63 -96
114 -231 114 -300 l0 -30 -162 1 c-153 1 -161 2 -164 21 -1 11 -5 52 -8 90 -3
39 -8 86 -12 105 -6 34 -4 37 39 59 25 13 70 41 99 62 29 21 55 39 58 39 3 0
19 -21 36 -47z m-751 -153 c59 -11 252 -5 310 9 22 5 41 8 43 6 5 -5 13 -83
15 -145 l2 -45 -245 0 -245 0 2 55 c1 30 5 74 8 97 7 47 -5 44 110 23z m-290
-360 c1 -8 5 -51 9 -95 4 -44 9 -94 11 -112 4 -29 1 -34 -30 -49 -19 -9 -62
-35 -97 -59 -59 -42 -63 -43 -81 -27 -24 21 -82 125 -102 182 -9 25 -22 75
-29 111 l-13 66 165 -1 c139 -1 165 -3 167 -16z m657 -50 c-1 -36 -4 -74 -7
-85 -2 -11 -4 -26 -4 -33 -1 -8 -8 -11 -18 -8 -96 29 -305 30 -420 1 -20 -5
-22 0 -28 48 -12 92 -13 132 -3 138 5 3 116 5 246 5 l237 -1 -3 -65z m499 35
c-11 -93 -77 -254 -136 -329 -14 -19 -16 -18 -72 21 -32 22 -77 51 -101 64
-39 21 -43 27 -38 51 3 15 8 63 11 105 10 134 -10 121 177 119 l163 -1 -4 -30z
m-572 -320 l29 -6 -22 -67 c-46 -133 -108 -225 -163 -238 -33 -9 -76 22 -116
83 -34 52 -76 149 -74 173 0 3 -5 15 -11 27 -11 19 -9 22 18 28 93 21 246 21
339 0z m-511 -102 c6 -16 12 -35 15 -43 3 -8 14 -39 26 -68 l21 -52 -43 21
c-67 34 -147 90 -142 99 6 10 96 70 106 70 3 0 11 -12 17 -27z m760 -8 l53
-36 -28 -23 c-35 -29 -167 -103 -162 -90 8 19 61 160 65 172 5 18 14 15 72
-23z"/>
</g>
</svg>
